<?xml version="1.0" standalone="no"?>
<!DOCTYPE svg PUBLIC "-//W3C//DTD SVG 20010904//EN"
 "http://www.w3.org/TR/2001/REC-SVG-20010904/DTD/svg10.dtd">
<svg version="1.0" xmlns="http://www.w3.org/2000/svg"
 width="1000.000000pt" height="1000.000000pt" viewBox="0 0 1000.000000 1000.000000"
 preserveAspectRatio="xMidYMid meet">
<metadata>
Created by potrace 1.14, written by Peter Selinger 2001-2017
</metadata>
<g transform="translate(0.000000,1000.000000) scale(0.100000,-0.100000)"
fill="#000000" stroke="none">
<path d="M4867 9694 c-1 -1 -63 -5 -137 -8 -205 -11 -396 -33 -540 -61 -14 -3
-38 -8 -55 -10 -198 -34 -644 -157 -790 -220 -16 -7 -73 -30 -125 -50 -52 -21
-127 -53 -166 -72 -39 -18 -76 -33 -82 -33 -7 0 -12 -4 -12 -10 0 -5 -6 -10
-14 -10 -7 0 -46 -18 -86 -40 -40 -22 -75 -40 -77 -40 -3 0 -63 -34 -134 -75
-452 -264 -843 -587 -1183 -976 -55 -64 -108 -124 -116 -135 -394 -495 -660
-999 -846 -1599 -14 -44 -27 -87 -29 -95 -2 -8 -13 -53 -25 -100 -12 -47 -23
-92 -25 -101 -2 -9 -13 -60 -24 -113 -12 -53 -24 -113 -26 -134 -3 -20 -7 -46
-10 -57 -2 -11 -7 -42 -10 -70 -4 -27 -8 -61 -11 -75 -39 -243 -49 -782 -19
-1055 11 -93 16 -143 21 -185 2 -25 7 -56 10 -70 3 -14 14 -74 25 -135 10 -60
26 -141 34 -180 9 -38 18 -78 20 -88 81 -383 298 -910 546 -1326 59 -99 266
-401 288 -421 4 -3 25 -30 47 -60 149 -199 462 -520 688 -705 27 -22 54 -45
60 -50 6 -6 64 -50 128 -98 413 -308 892 -555 1363 -703 182 -58 270 -83 345
-99 74 -17 169 -37 185 -41 19 -4 174 -31 225 -39 357 -56 822 -64 1230 -20
57 6 286 41 330 50 14 3 39 8 55 11 246 43 668 175 938 293 26 11 49 21 52 21
24 2 451 230 549 293 439 281 738 534 1077 912 46 52 211 261 276 350 168 231
346 541 468 816 25 57 50 113 55 124 27 60 116 303 125 340 1 6 5 17 8 25 3 8
17 56 32 105 14 50 30 104 35 120 5 17 11 41 13 55 3 14 10 43 16 65 10 41 55
261 65 325 11 71 15 96 20 140 3 25 8 65 11 90 40 312 38 756 -5 1108 -13 104
-50 328 -64 387 -2 6 -6 28 -11 50 -22 114 -134 502 -164 570 -5 11 -14 36
-21 55 -14 40 -11 34 -81 200 -294 704 -793 1356 -1419 1853 -155 123 -502
357 -530 357 -5 0 -10 3 -12 8 -9 21 -432 230 -608 300 -122 49 -345 127 -405
142 -16 4 -79 21 -140 38 -155 43 -385 90 -525 108 -25 3 -52 7 -60 9 -8 2
-46 7 -85 10 -38 4 -86 9 -105 11 -98 11 -552 26 -563 18z"/>
</g>
</svg>
